<svg version="1.1" id="Layer_1" xmlns="http://www.w3.org/2000/svg" x="0px" y="0px"
     width="100%" viewBox="0 0 645 645" enable-background="new 0 0 645 645" xml:space="preserve">
<path fill="#181B1F" opacity="1.000000" stroke="none" 
	d="
M646.000000,166.000000 
	C646.000000,326.333313 646.000000,486.166626 646.000000,646.000000 
	C431.000061,646.000000 216.000137,646.000000 1.000151,646.000000 
	C1.000101,431.000092 1.000101,216.000214 1.000050,1.000237 
	C215.999863,1.000158 430.999725,1.000158 645.999756,1.000079 
	C646.000000,55.833332 646.000000,110.666664 646.000000,166.000000 
M83.932785,642.951416 
	C123.623543,642.943481 163.314301,642.935608 203.941467,642.951721 
	C283.625977,642.943726 363.310486,642.935730 443.932953,642.959595 
	C483.623627,642.948914 523.314270,642.938293 563.940979,642.959656 
	C588.059387,642.970825 612.177917,643.006531 636.296265,642.975891 
	C642.251099,642.968323 642.968750,642.263245 642.974182,636.357605 
	C642.996643,611.906677 642.949341,587.455811 642.951416,562.067200 
	C642.943481,495.709839 642.935547,429.352509 642.960632,362.059174 
	C642.949646,335.707733 642.938599,309.356293 642.951416,282.067200 
	C642.943481,215.709839 642.935547,149.352478 642.960693,82.059158 
	C642.971558,57.940720 643.006836,33.822254 642.975891,9.703867 
	C642.968262,3.751539 642.260742,3.031439 636.357727,3.026012 
	C611.906799,3.003536 587.455872,3.050749 562.067261,3.048565 
	C522.376526,3.056439 482.685760,3.064314 442.058533,3.048212 
	C362.374054,3.056204 282.689545,3.064196 202.067108,3.040418 
	C162.376434,3.051069 122.685768,3.061720 82.059074,3.040368 
	C57.940643,3.029184 33.822182,2.993552 9.703804,3.024186 
	C3.751404,3.031746 3.031435,3.739239 3.026010,9.642367 
	C3.003535,34.093250 3.050745,58.544193 3.048560,83.932793 
	C3.056494,150.290146 3.064427,216.647507 3.040361,283.940887 
	C3.051027,310.292297 3.061694,336.643738 3.048558,363.932800 
	C3.056493,430.290192 3.064427,496.647552 3.039342,563.940857 
	C3.028501,588.059326 2.993227,612.177795 3.024174,636.296204 
	C3.031812,642.248596 3.739335,642.968689 9.642335,642.974121 
	C34.093224,642.996582 58.544174,642.949280 83.932785,642.951416 
z"/>
<path fill="#20030C" opacity="1.000000" stroke="none" 
	d="
M3.072361,563.004944 
	C3.064427,496.647552 3.056493,430.290192 3.521435,363.465027 
	C17.032446,362.985962 30.070578,362.974701 43.570320,362.977173 
	C56.984787,362.981995 69.937637,362.973083 83.366051,362.969452 
	C96.930641,362.970947 110.019676,362.967194 123.570320,362.977173 
	C136.985046,362.981720 149.938156,362.972595 163.366714,362.968781 
	C176.839340,362.979401 189.836517,362.984680 202.896500,363.455566 
	C202.959305,390.134216 202.959305,416.347290 202.959305,443.214539 
	C189.291229,443.214539 176.266602,443.214539 163.350021,443.214539 
	C163.350021,456.772888 163.350021,469.668488 163.350021,483.166290 
	C176.800476,483.166290 189.905289,483.166290 203.008560,483.624451 
	C203.008698,494.912323 203.132309,505.743988 202.955765,516.570801 
	C202.878418,521.315491 204.817993,523.045349 209.496399,523.040833 
	C285.137665,522.967896 360.779022,522.999695 436.420349,522.970703 
	C442.169617,522.968506 442.945251,522.112488 442.976196,516.155151 
	C443.033356,505.159119 442.990906,494.162598 443.455505,483.103485 
	C456.822021,483.040680 469.722931,483.040680 482.710632,483.040680 
	C482.710632,469.350189 482.710632,456.455536 482.710632,442.902893 
	C469.412689,442.902893 456.387024,442.902893 443.166290,442.902893 
	C443.166290,415.825928 443.166290,389.407867 443.624390,362.991333 
	C457.091492,362.983337 470.100494,362.973785 483.571167,362.977661 
	C496.985626,362.981873 509.938446,362.972656 523.366760,362.968781 
	C536.931335,362.970825 550.020386,362.967529 563.571167,362.977661 
	C576.985596,362.981903 589.938477,362.972687 603.366760,362.968811 
	C616.870667,362.981140 629.899170,362.988129 642.927612,362.995148 
	C642.935547,429.352509 642.943481,495.709839 642.478516,562.534973 
	C629.021057,562.987305 616.036377,562.971863 603.043518,562.490601 
	C603.020569,551.231445 603.051147,540.437622 602.973083,529.644592 
	C602.930969,523.836609 602.142151,523.064819 596.258362,523.024353 
	C585.133240,522.947876 574.007385,522.969543 562.926147,522.486755 
	C562.951843,509.000092 562.933105,495.977081 563.389404,482.971130 
	C576.750671,482.988190 589.636963,482.988190 602.611023,482.988190 
	C602.611023,469.346222 602.611023,456.352875 602.611023,443.085602 
	C589.134277,443.085602 576.044128,443.085602 562.971069,442.610687 
	C562.988159,429.226807 562.988159,416.317841 562.988159,403.455627 
	C549.259277,403.455627 536.245056,403.455627 523.370544,403.455627 
	C523.370544,416.811890 523.370544,429.709595 523.370544,442.951965 
	C536.854553,442.951965 549.971191,442.951965 563.054688,443.422607 
	C563.030457,456.958099 563.039246,470.022949 562.577454,483.054688 
	C549.202271,483.021606 536.297729,483.021606 522.939514,483.021606 
	C522.939514,496.846985 522.939514,509.960632 522.961975,523.029358 
	C522.984436,522.984436 523.074280,522.939514 522.601440,522.962341 
	C509.220276,522.985168 496.311951,522.985168 482.934265,522.985168 
	C482.934265,536.836914 482.934265,549.951355 482.967133,563.032837 
	C483.000000,563.000000 483.065735,562.934265 482.593445,562.958984 
	C454.981049,562.989197 427.840912,563.004089 400.700775,562.998291 
	C321.445282,562.981384 242.189774,562.956177 162.967133,562.967163 
	C163.000000,563.000000 163.065735,563.065735 163.040985,562.593506 
	C163.016220,549.213501 163.016220,536.305847 163.016220,522.939514 
	C149.156479,522.939514 136.041107,522.939514 122.970688,522.961914 
	C123.015648,522.984375 123.060463,523.074280 123.037659,522.601440 
	C123.014847,509.222565 123.014847,496.316559 123.014847,483.085480 
	C109.173759,483.085480 96.064003,483.085480 82.971237,482.610565 
	C82.963715,469.075226 82.939194,456.014832 83.389572,442.971344 
	C96.773415,442.988281 109.682350,442.988281 122.544235,442.988281 
	C122.544235,429.258789 122.544235,416.244080 122.544235,403.370667 
	C109.187378,403.370667 96.289307,403.370667 83.048309,403.370667 
	C83.048309,416.855194 83.048309,429.971710 82.577652,443.054962 
	C69.222420,443.021729 56.337841,443.021729 43.401871,443.021729 
	C43.401871,456.678314 43.401871,469.672760 43.401871,482.951843 
	C56.897209,482.951843 69.992615,482.951843 83.054863,483.422485 
	C83.053871,496.912262 83.086044,509.931335 82.642197,522.957703 
	C71.707565,522.977417 61.248886,522.970093 50.790382,523.009216 
	C43.605698,523.036072 43.042747,523.579041 43.011063,530.584717 
	C42.962257,541.375122 42.966591,552.165771 42.483002,562.962769 
	C29.035864,562.981140 16.054113,562.993042 3.072361,563.004944 
z"/>
<path fill="#20030C" opacity="1.000000" stroke="none" 
	d="
M3.072361,283.004852 
	C3.064427,216.647507 3.056494,150.290146 3.521437,83.465012 
	C16.978939,83.012650 29.963562,83.028084 42.956470,83.509262 
	C42.979431,94.768509 42.948887,105.562325 43.026958,116.355354 
	C43.068970,122.163338 43.857948,122.935242 49.741600,122.975677 
	C60.866776,123.052132 71.992622,123.030464 83.073853,123.513260 
	C83.089890,137.038605 83.150276,150.100281 82.719498,163.099640 
	C69.326218,163.037338 56.424107,163.037338 43.377903,163.037338 
	C43.377903,176.616226 43.377903,189.616806 43.377903,202.914505 
	C56.850689,202.914505 69.948212,202.914505 83.028748,203.389420 
	C83.011757,216.773285 83.011757,229.682251 83.011757,242.544312 
	C96.741135,242.544312 109.755859,242.544312 122.629379,242.544312 
	C122.629379,229.187943 122.629379,216.290268 122.629379,203.048141 
	C109.144928,203.048141 96.028435,203.048141 82.945114,202.577484 
	C83.010033,189.083847 83.041771,176.060852 83.537369,163.023590 
	C96.883469,163.009323 109.765717,163.009323 123.060471,163.009323 
	C123.060471,149.126938 123.060471,136.026337 123.038071,122.970703 
	C123.015663,123.015663 122.925735,123.060471 123.398590,123.037659 
	C136.779770,123.014847 149.688095,123.014847 163.065735,123.014847 
	C163.065735,109.163086 163.065735,96.048676 163.032867,82.967133 
	C163.000000,83.000000 162.934265,83.065727 163.406494,83.040970 
	C190.685898,83.010811 217.493042,82.996033 244.300201,83.001755 
	C323.888702,83.018745 403.477234,83.043816 483.032867,83.032867 
	C483.000000,83.000000 482.934265,82.934265 482.959045,83.406540 
	C482.983795,96.786507 482.983795,109.694199 482.983795,123.060463 
	C496.843536,123.060463 509.958893,123.060463 523.029297,123.038055 
	C522.984375,123.015648 522.939514,122.925735 522.962341,123.398590 
	C522.985168,136.792953 522.985168,149.714462 522.985168,162.789474 
	C536.895874,162.789474 550.028931,162.789474 563.099670,163.280640 
	C563.053467,176.863144 563.069519,189.954468 562.610596,203.028778 
	C549.226746,203.011780 536.317749,203.011780 523.455688,203.011780 
	C523.455688,216.741135 523.455688,229.755859 523.455688,242.629395 
	C536.812073,242.629395 549.709717,242.629395 562.951904,242.629395 
	C562.951904,229.145279 562.951904,216.028641 563.422546,202.945160 
	C576.808533,202.978317 589.723938,202.978317 602.686523,202.978317 
	C602.686523,189.323914 602.686523,176.417633 602.686523,162.926620 
	C589.265076,162.926620 576.151489,162.926620 563.023682,162.462769 
	C562.966919,149.015823 562.924438,136.032730 563.357971,123.042389 
	C574.292603,123.022636 584.751221,123.029839 595.209778,122.990807 
	C602.394226,122.963997 602.957153,122.421043 602.988892,115.415176 
	C603.037781,104.624748 603.033447,93.834091 603.517090,83.037079 
	C616.964172,83.018799 629.945923,83.006958 642.927612,82.995117 
	C642.935547,149.352478 642.943481,215.709839 642.478516,282.534973 
	C628.967590,283.014038 615.929443,283.025299 602.429688,283.022827 
	C589.015198,283.017975 576.062378,283.026855 562.633911,283.030518 
	C549.069336,283.029022 535.980347,283.032806 522.429688,283.022827 
	C509.015228,283.017975 496.062378,283.026855 482.633972,283.030518 
	C469.161041,283.020203 456.163666,283.015137 443.103516,282.544495 
	C443.040680,255.865814 443.040680,229.652740 443.040680,202.785492 
	C456.708771,202.785492 469.733398,202.785492 482.649963,202.785492 
	C482.649963,189.226578 482.649963,176.330521 482.649963,162.833694 
	C469.200012,162.833694 456.094971,162.833694 442.991455,162.375519 
	C442.991333,151.087646 442.867767,140.255951 443.044250,129.429138 
	C443.121552,124.684494 441.181976,122.954605 436.503540,122.959114 
	C360.862305,123.032066 285.220947,123.000328 209.579605,123.029335 
	C203.830307,123.031540 203.054749,123.887482 203.023788,129.844849 
	C202.966660,140.840851 203.009125,151.837387 202.544510,162.896500 
	C189.178009,162.959305 176.277115,162.959305 163.289322,162.959305 
	C163.289322,176.649750 163.289322,189.544418 163.289322,203.097046 
	C176.587204,203.097046 189.612869,203.097046 202.833694,203.097046 
	C202.833694,230.173981 202.833694,256.592041 202.375519,283.008545 
	C188.908691,283.016876 175.900024,283.026764 162.429810,283.022858 
	C149.015076,283.018219 136.061905,283.027374 122.633293,283.031189 
	C109.068718,283.029175 95.979591,283.032471 82.428848,283.022339 
	C69.014397,283.018097 56.061569,283.027313 42.633293,283.031189 
	C29.129351,283.018890 16.100855,283.011871 3.072361,283.004852 
z"/>
<path fill="#160209" opacity="1.000000" stroke="none" 
	d="
M442.994995,642.927734 
	C363.310486,642.935730 283.625977,642.943726 203.472153,642.478760 
	C203.005264,629.059265 203.007675,616.112793 203.474304,603.102539 
	C282.793579,603.027344 361.648621,603.015442 440.503693,603.011169 
	C441.332428,603.011108 442.161163,603.112366 442.991425,603.624512 
	C442.993622,617.031067 442.994324,629.979431 442.994995,642.927734 
z"/>
<path fill="#160209" opacity="1.000000" stroke="none" 
	d="
M203.005066,3.072188 
	C282.689545,3.064196 362.374054,3.056204 442.527832,3.521198 
	C442.994751,16.940676 442.992371,29.887169 442.525757,42.897408 
	C363.206451,42.972591 284.351440,42.984520 205.496399,42.988743 
	C204.667664,42.988785 203.838913,42.887596 203.008636,42.375435 
	C203.006424,28.968866 203.005737,16.020527 203.005066,3.072188 
z"/>
<path fill="#20030C" opacity="1.000000" stroke="none" 
	d="
M442.989990,42.833660 
	C442.992371,29.887169 442.994751,16.940676 442.996063,3.533186 
	C482.685760,3.064314 522.376526,3.056439 562.535034,3.521442 
	C562.987305,16.978935 562.971863,29.963551 562.490662,42.956455 
	C551.231384,42.979424 540.437622,42.948879 529.644531,43.026966 
	C523.836487,43.068985 523.064819,43.857700 523.024353,49.741669 
	C522.947815,60.866844 522.969543,71.992699 522.486816,83.073883 
	C508.993500,82.997757 495.963898,82.966011 482.934265,82.934265 
	C482.934265,82.934265 483.000000,83.000000 483.008118,82.560593 
	C483.016205,69.220345 483.016205,56.319504 483.016205,42.833660 
	C469.191559,42.833660 456.090790,42.833660 442.989990,42.833660 
z"/>
<path fill="#20030C" opacity="1.000000" stroke="none" 
	d="
M443.463989,642.943665 
	C442.994324,629.979431 442.993622,617.031067 443.457031,603.561768 
	C456.818756,603.040710 469.716400,603.040710 483.065735,603.040710 
	C483.065735,589.151184 483.065735,576.042725 483.065735,562.934265 
	C483.065735,562.934265 483.000000,563.000000 483.439392,563.008118 
	C496.902679,562.971436 509.926575,562.926636 522.957642,563.357910 
	C522.977417,574.292542 522.970154,584.751221 523.009216,595.209717 
	C523.036011,602.394226 523.579041,602.957214 530.584839,602.988892 
	C541.375183,603.037781 552.165894,603.033447 562.962830,603.517090 
	C562.981140,616.964172 562.993042,629.945923 563.004944,642.927612 
	C523.314270,642.938293 483.623627,642.948914 443.463989,642.943665 
z"/>
<path fill="#20030C" opacity="1.000000" stroke="none" 
	d="
M202.536087,3.056303 
	C203.005737,16.020527 203.006424,28.968866 202.543015,42.438244 
	C189.181259,42.959282 176.283615,42.959282 162.934265,42.959282 
	C162.934265,56.848484 162.934265,69.957108 162.934265,83.065727 
	C162.934265,83.065727 163.000000,83.000000 162.560593,82.991882 
	C149.097336,83.028542 136.073486,83.073326 123.042389,82.642090 
	C123.022629,71.707481 123.029846,61.248810 122.990807,50.790314 
	C122.963989,43.605892 122.420822,43.042770 115.415222,43.011063 
	C104.624802,42.962219 93.834137,42.966496 83.037125,42.482857 
	C83.018806,29.035778 83.006950,16.054075 82.995102,3.072371 
	C122.685768,3.061720 162.376434,3.051069 202.536087,3.056303 
z"/>
<path fill="#20030C" opacity="1.000000" stroke="none" 
	d="
M203.010086,603.166321 
	C203.007675,616.112793 203.005264,629.059265 203.003952,642.466736 
	C163.314301,642.935608 123.623543,642.943481 83.464996,642.478516 
	C83.012650,629.021057 83.028076,616.036438 83.509262,603.043579 
	C94.768501,603.020569 105.562317,603.051147 116.355347,602.973022 
	C122.163490,602.930969 122.935242,602.142151 122.975677,596.258423 
	C123.052124,585.133301 123.030464,574.007385 123.513260,562.926208 
	C137.006531,563.002258 150.036133,563.033997 163.065735,563.065735 
	C163.065735,563.065735 163.000000,563.000000 162.991882,563.439392 
	C162.983780,576.779663 162.983780,589.680542 162.983780,603.166321 
	C176.808472,603.166321 189.909286,603.166321 203.010086,603.166321 
z"/>
<path fill="#160209" opacity="1.000000" stroke="none" 
	d="
M82.527084,3.056370 
	C83.006950,16.054075 83.018806,29.035778 83.009048,42.513073 
	C82.987434,43.008663 82.931099,43.068909 82.467499,43.042259 
	C69.132088,43.015610 56.260281,43.015610 43.068855,43.015610 
	C43.068855,56.778866 43.068855,69.854958 43.038734,82.959213 
	C43.008614,82.987373 42.948185,83.043510 42.948185,83.043510 
	C29.963562,83.028084 16.978939,83.012650 3.533340,82.996170 
	C3.050745,58.544193 3.003535,34.093250 3.026010,9.642367 
	C3.031435,3.739239 3.751404,3.031746 9.703804,3.024186 
	C33.822182,2.993552 57.940643,3.029184 82.527084,3.056370 
z"/>
<path fill="#160209" opacity="1.000000" stroke="none" 
	d="
M562.956421,42.948166 
	C562.971863,29.963551 562.987305,16.978935 563.003906,3.533345 
	C587.455872,3.050749 611.906799,3.003536 636.357727,3.026012 
	C642.260742,3.031439 642.968262,3.751539 642.975891,9.703867 
	C643.006836,33.822254 642.971558,57.940720 642.944153,82.527130 
	C629.945923,83.006958 616.964172,83.018799 603.486877,83.009018 
	C602.991272,82.987404 602.931152,82.931046 602.957764,82.467453 
	C602.984375,69.132057 602.984375,56.260258 602.984375,43.068840 
	C589.221497,43.068840 576.145203,43.068840 563.040771,43.038719 
	C563.012573,43.008598 562.956421,42.948166 562.956421,42.948166 
z"/>
<path fill="#160209" opacity="1.000000" stroke="none" 
	d="
M83.043510,603.051819 
	C83.028076,616.036438 83.012650,629.021057 82.996155,642.466675 
	C58.544174,642.949280 34.093224,642.996582 9.642335,642.974121 
	C3.739335,642.968689 3.031812,642.248596 3.024174,636.296204 
	C2.993227,612.177795 3.028501,588.059326 3.055852,563.472900 
	C16.054113,562.993042 29.035864,562.981140 42.513222,562.990845 
	C43.008823,563.012451 43.068962,563.068848 43.042290,563.532410 
	C43.015617,576.867798 43.015617,589.739624 43.015617,602.931213 
	C56.778473,602.931213 69.854729,602.931213 82.959160,602.961304 
	C82.987335,602.991455 83.043510,603.051819 83.043510,603.051819 
z"/>
<path fill="#160209" opacity="1.000000" stroke="none" 
	d="
M563.472961,642.943604 
	C562.993042,629.945923 562.981140,616.964172 562.990906,603.486877 
	C563.012573,602.991272 563.068909,602.931091 563.532471,602.957764 
	C576.867859,602.984375 589.739685,602.984375 602.931152,602.984375 
	C602.931152,589.221130 602.931152,576.145081 602.961243,563.040771 
	C602.991333,563.012573 603.051758,562.956421 603.051758,562.956421 
	C616.036377,562.971863 629.021057,562.987305 642.466675,563.003784 
	C642.949341,587.455811 642.996643,611.906677 642.974182,636.357605 
	C642.968750,642.263245 642.251099,642.968323 636.296265,642.975891 
	C612.177917,643.006531 588.059387,642.970825 563.472961,642.943604 
z"/>
<path fill="#160209" opacity="1.000000" stroke="none" 
	d="
M602.891357,283.036560 
	C615.929443,283.025299 628.967590,283.014038 642.466675,283.003815 
	C642.938599,309.356293 642.949646,335.707733 642.944092,362.527161 
	C629.899170,362.988129 616.870667,362.981140 603.408691,362.504120 
	C602.947266,335.701599 602.919312,309.369080 602.891357,283.036560 
z"/>
<path fill="#160209" opacity="1.000000" stroke="none" 
	d="
M3.056361,283.472870 
	C16.100855,283.011871 29.129351,283.018890 42.591309,283.495880 
	C43.052750,310.298401 43.080730,336.630920 43.108711,362.963440 
	C30.070578,362.974701 17.032446,362.985962 3.533336,362.996185 
	C3.061694,336.643738 3.051027,310.292297 3.056361,283.472870 
z"/>
<path fill="#D61849" opacity="1.000000" stroke="none" 
	d="
M202.833694,283.010071 
	C202.833694,256.592041 202.833694,230.173981 202.833694,203.097046 
	C189.612869,203.097046 176.587204,203.097046 163.289322,203.097046 
	C163.289322,189.544418 163.289322,176.649750 163.289322,162.959305 
	C176.277115,162.959305 189.178009,162.959305 203.008728,162.960236 
	C282.793579,162.972610 361.648651,162.984558 440.503723,162.988770 
	C441.332458,162.988815 442.161194,162.887619 442.989929,162.833694 
	C456.094971,162.833694 469.200012,162.833694 482.649963,162.833694 
	C482.649963,176.330521 482.649963,189.226578 482.649963,202.785492 
	C469.733398,202.785492 456.708771,202.785492 443.040680,202.785492 
	C443.040680,229.652740 443.040680,255.865814 443.039734,283.008728 
	C443.081329,310.288971 443.123810,336.639404 443.166290,362.989807 
	C443.166290,389.407867 443.166290,415.825928 443.166290,442.902893 
	C456.387024,442.902893 469.412689,442.902893 482.710632,442.902893 
	C482.710632,456.455536 482.710632,469.350189 482.710632,483.040680 
	C469.722931,483.040680 456.822021,483.040680 442.991272,483.039734 
	C363.206390,483.027405 284.351349,483.015503 205.496307,483.011261 
	C204.667572,483.011230 203.838821,483.112366 203.010086,483.166290 
	C189.905289,483.166290 176.800476,483.166290 163.350021,483.166290 
	C163.350021,469.668488 163.350021,456.772888 163.350021,443.214539 
	C176.266602,443.214539 189.291229,443.214539 202.959305,443.214539 
	C202.959305,416.347290 202.959305,390.134216 202.960236,362.991333 
	C202.918686,335.711029 202.876190,309.360535 202.833694,283.010071 
M282.959320,282.078979 
	C282.959320,255.833984 282.959320,229.588989 282.959320,203.331146 
	C269.296600,203.331146 256.386047,203.331146 243.166306,203.331146 
	C243.166306,230.110260 243.166306,256.560150 243.038834,283.938507 
	C243.081329,310.288940 243.123810,336.639374 243.040695,363.921021 
	C243.040695,390.166016 243.040695,416.411011 243.040695,442.668854 
	C256.703430,442.668854 269.613983,442.668854 282.833679,442.668854 
	C282.833679,415.889740 282.833679,389.439819 282.961182,362.061432 
	C282.918671,335.711029 282.876190,309.360596 282.959320,282.078979 
M402.959320,282.079712 
	C402.959320,255.834488 402.959320,229.589264 402.959320,203.331253 
	C389.296509,203.331253 376.385864,203.331253 363.166260,203.331253 
	C363.166260,230.110779 363.166260,256.560944 363.038818,283.939423 
	C363.081299,310.289551 363.123810,336.639679 363.040680,363.921021 
	C363.040680,390.166016 363.040680,416.411041 363.040680,442.668854 
	C376.703430,442.668854 389.613983,442.668854 402.833679,442.668854 
	C402.833679,415.889740 402.833679,389.439819 402.961151,362.061493 
	C402.918671,335.711334 402.876190,309.361206 402.959320,282.079712 
z"/>
<path fill="#D61849" opacity="1.000000" stroke="none" 
	d="
M203.474304,603.102539 
	C189.909286,603.166321 176.808472,603.166321 162.983780,603.166321 
	C162.983780,589.680542 162.983780,576.779663 162.959015,563.406494 
	C242.189774,562.956177 321.445282,562.981384 400.700775,562.998291 
	C427.840912,563.004089 454.981049,562.989197 482.593445,562.958984 
	C483.065735,576.042725 483.065735,589.151184 483.065735,603.040710 
	C469.716400,603.040710 456.818756,603.040710 443.455505,603.103516 
	C442.161163,603.112366 441.332428,603.011108 440.503693,603.011169 
	C361.648621,603.015442 282.793579,603.027344 203.474304,603.102539 
z"/>
<path fill="#160209" opacity="1.000000" stroke="none" 
	d="
M203.008560,483.624451 
	C203.838821,483.112366 204.667572,483.011230 205.496307,483.011261 
	C284.351349,483.015503 363.206390,483.027405 442.525696,483.102539 
	C442.990906,494.162598 443.033356,505.159119 442.976196,516.155151 
	C442.945251,522.112488 442.169617,522.968506 436.420349,522.970703 
	C360.779022,522.999695 285.137665,522.967896 209.496399,523.040833 
	C204.817993,523.045349 202.878418,521.315491 202.955765,516.570801 
	C203.132309,505.743988 203.008698,494.912323 203.008560,483.624451 
z"/>
<path fill="#160209" opacity="1.000000" stroke="none" 
	d="
M123.049576,562.881836 
	C123.030464,574.007385 123.052124,585.133301 122.975677,596.258423 
	C122.935242,602.142151 122.163490,602.930969 116.355347,602.973022 
	C105.562317,603.051147 94.768501,603.020569 83.509262,603.043579 
	C83.043510,603.051819 82.987335,602.991455 82.985840,602.497803 
	C82.984352,589.132324 82.984352,576.260437 82.984352,563.068848 
	C69.221184,563.068848 56.145073,563.068848 43.068962,563.068848 
	C43.068962,563.068848 43.008823,563.012451 42.978603,562.984375 
	C42.966591,552.165771 42.962257,541.375122 43.011063,530.584717 
	C43.042747,523.579041 43.605698,523.036072 50.790382,523.009216 
	C61.248886,522.970093 71.707565,522.977417 83.102974,522.976807 
	C97.046677,523.017151 110.053566,523.045715 123.060463,523.074280 
	C123.060463,523.074280 123.015648,522.984375 122.999222,523.433716 
	C123.005051,536.882629 123.027313,549.882202 123.049576,562.881836 
z"/>
<path fill="#160209" opacity="1.000000" stroke="none" 
	d="
M562.984497,603.021484 
	C552.165894,603.033447 541.375183,603.037781 530.584839,602.988892 
	C523.579041,602.957214 523.036011,602.394226 523.009216,595.209717 
	C522.970154,584.751221 522.977417,574.292542 522.976807,562.897095 
	C523.017151,548.953308 523.045715,535.946411 523.074280,522.939514 
	C523.074280,522.939514 522.984436,522.984436 523.433716,523.000854 
	C536.882629,522.994934 549.882202,522.972656 562.881836,522.950439 
	C574.007385,522.969543 585.133240,522.947876 596.258362,523.024353 
	C602.142151,523.064819 602.930969,523.836609 602.973083,529.644592 
	C603.051147,540.437622 603.020569,551.231445 603.043518,562.490662 
	C603.051758,562.956421 602.991333,563.012573 602.497742,563.014099 
	C589.132324,563.015625 576.260437,563.015625 563.068909,563.015625 
	C563.068909,576.778503 563.068909,589.854797 563.068909,602.931091 
	C563.068909,602.931091 563.012573,602.991272 562.984497,603.021484 
z"/>
<path fill="#D61849" opacity="1.000000" stroke="none" 
	d="
M602.429688,283.022827 
	C602.919312,309.369080 602.947266,335.701599 602.933228,362.498779 
	C589.938477,362.972687 576.985596,362.981903 563.528870,362.513000 
	C563.053162,335.701813 563.081360,309.368805 563.109497,283.035767 
	C576.062378,283.026855 589.015198,283.017975 602.429688,283.022827 
z"/>
<path fill="#160209" opacity="1.000000" stroke="none" 
	d="
M562.633911,283.030518 
	C563.081360,309.368805 563.053162,335.701813 563.067261,362.499542 
	C550.020386,362.967529 536.931335,362.970825 523.408691,362.504120 
	C522.947266,335.701599 522.919312,309.369080 522.891357,283.036560 
	C535.980347,283.032806 549.069336,283.029022 562.633911,283.030518 
z"/>
<path fill="#D61849" opacity="1.000000" stroke="none" 
	d="
M522.429688,283.022827 
	C522.919312,309.369080 522.947266,335.701599 522.933228,362.498779 
	C509.938446,362.972656 496.985626,362.981873 483.528870,362.512970 
	C483.053162,335.701813 483.081360,309.368805 483.109558,283.035767 
	C496.062378,283.026855 509.015228,283.017975 522.429688,283.022827 
z"/>
<path fill="#160209" opacity="1.000000" stroke="none" 
	d="
M482.633972,283.030518 
	C483.081360,309.368805 483.053162,335.701813 483.067261,362.499542 
	C470.100494,362.973785 457.091492,362.983337 443.624390,362.991333 
	C443.123810,336.639404 443.081329,310.288971 443.102570,283.474304 
	C456.163666,283.015137 469.161041,283.020203 482.633972,283.030518 
z"/>
<path fill="#160209" opacity="1.000000" stroke="none" 
	d="
M202.375519,283.008545 
	C202.876190,309.360535 202.918686,335.711029 202.897430,362.525726 
	C189.836517,362.984680 176.839340,362.979401 163.408691,362.504120 
	C162.947281,335.701630 162.919327,309.369110 162.891357,283.036621 
	C175.900024,283.026764 188.908691,283.016876 202.375519,283.008545 
z"/>
<path fill="#D61849" opacity="1.000000" stroke="none" 
	d="
M43.570320,362.977173 
	C43.080730,336.630920 43.052750,310.298401 43.066757,283.501221 
	C56.061569,283.027313 69.014397,283.018097 82.471138,283.487000 
	C82.946869,310.298157 82.918686,336.631195 82.890503,362.964203 
	C69.937637,362.973083 56.984787,362.981995 43.570320,362.977173 
z"/>
<path fill="#160209" opacity="1.000000" stroke="none" 
	d="
M83.366058,362.969452 
	C82.918686,336.631195 82.946869,310.298157 82.932755,283.500458 
	C95.979591,283.032471 109.068718,283.029175 122.591309,283.495880 
	C123.052750,310.298401 123.080727,336.630920 123.108711,362.963440 
	C110.019676,362.967194 96.930641,362.970947 83.366058,362.969452 
z"/>
<path fill="#D61849" opacity="1.000000" stroke="none" 
	d="
M123.570320,362.977173 
	C123.080727,336.630920 123.052750,310.298401 123.066757,283.501221 
	C136.061905,283.027374 149.015076,283.018219 162.429810,283.022858 
	C162.919327,309.369110 162.947281,335.701630 162.933258,362.498779 
	C149.938156,362.972595 136.985046,362.981720 123.570320,362.977173 
z"/>
<path fill="#D61849" opacity="1.000000" stroke="none" 
	d="
M522.601440,522.962341 
	C523.045715,535.946411 523.017151,548.953308 522.969543,562.421021 
	C509.926575,562.926636 496.902679,562.971436 483.406555,563.041016 
	C482.934265,549.951355 482.934265,536.836914 482.934265,522.985168 
	C496.311951,522.985168 509.220276,522.985168 522.601440,522.962341 
z"/>
<path fill="#D61849" opacity="1.000000" stroke="none" 
	d="
M123.513260,562.926208 
	C123.027313,549.882202 123.005051,536.882629 122.954262,523.411255 
	C136.041107,522.939514 149.156479,522.939514 163.016220,522.939514 
	C163.016220,536.305847 163.016220,549.213501 163.040985,562.593506 
	C150.036133,563.033997 137.006531,563.002258 123.513260,562.926208 
z"/>
<path fill="#D61849" opacity="1.000000" stroke="none" 
	d="
M562.926147,522.486816 
	C549.882202,522.972656 536.882629,522.994934 523.411255,523.045776 
	C522.939514,509.960632 522.939514,496.846985 522.939514,483.021606 
	C536.297729,483.021606 549.202271,483.021606 562.545349,483.019958 
	C562.983887,483.018341 562.914429,482.954041 562.914429,482.954041 
	C562.933105,495.977081 562.951843,509.000092 562.926147,522.486816 
z"/>
<path fill="#D61849" opacity="1.000000" stroke="none" 
	d="
M123.037659,522.601440 
	C110.053566,523.045715 97.046677,523.017151 83.578995,522.969543 
	C83.086044,509.931335 83.053871,496.912262 83.020119,483.454620 
	C83.018539,483.016083 82.954239,483.085480 82.954239,483.085480 
	C96.064003,483.085480 109.173759,483.085480 123.014847,483.085480 
	C123.014847,496.316559 123.014847,509.222565 123.037659,522.601440 
z"/>
<path fill="#D61849" opacity="1.000000" stroke="none" 
	d="
M563.015991,483.053070 
	C563.039246,470.022949 563.030457,456.958099 563.019958,443.454712 
	C563.018311,443.016205 562.954041,443.085602 562.954041,443.085602 
	C576.044128,443.085602 589.134277,443.085602 602.611023,443.085602 
	C602.611023,456.352875 602.611023,469.346222 602.611023,482.988190 
	C589.636963,482.988190 576.750671,482.988190 563.389404,482.971130 
	C562.914429,482.954041 562.983887,483.018341 563.015991,483.053070 
z"/>
<path fill="#D61849" opacity="1.000000" stroke="none" 
	d="
M83.053284,482.983948 
	C69.992615,482.951843 56.897209,482.951843 43.401871,482.951843 
	C43.401871,469.672760 43.401871,456.678314 43.401871,443.021729 
	C56.337841,443.021729 69.222420,443.021729 82.545532,443.020203 
	C82.984077,443.018707 82.914680,442.954407 82.914680,442.954407 
	C82.939194,456.014832 82.963715,469.075226 82.971237,482.610565 
	C82.954239,483.085480 83.018539,483.016083 83.053284,482.983948 
z"/>
<path fill="#D61849" opacity="1.000000" stroke="none" 
	d="
M563.053101,442.984070 
	C549.971191,442.951965 536.854553,442.951965 523.370544,442.951965 
	C523.370544,429.709595 523.370544,416.811890 523.370544,403.455627 
	C536.245056,403.455627 549.259277,403.455627 562.988159,403.455627 
	C562.988159,416.317841 562.988159,429.226807 562.971069,442.610687 
	C562.954041,443.085602 563.018311,443.016205 563.053101,442.984070 
z"/>
<path fill="#D61849" opacity="1.000000" stroke="none" 
	d="
M83.016190,443.053467 
	C83.048309,429.971710 83.048309,416.855194 83.048309,403.370667 
	C96.289307,403.370667 109.187378,403.370667 122.544235,403.370667 
	C122.544235,416.244080 122.544235,429.258789 122.544235,442.988281 
	C109.682350,442.988281 96.773415,442.988281 83.389572,442.971344 
	C82.914680,442.954407 82.984077,443.018707 83.016190,443.053467 
z"/>
<path fill="#D61849" opacity="1.000000" stroke="none" 
	d="
M163.406494,83.040970 
	C162.934265,69.957108 162.934265,56.848484 162.934265,42.959282 
	C176.283615,42.959282 189.181259,42.959282 202.544556,42.896473 
	C203.838913,42.887596 204.667664,42.988785 205.496399,42.988743 
	C284.351440,42.984520 363.206451,42.972591 442.525757,42.897408 
	C456.090790,42.833660 469.191559,42.833660 483.016205,42.833660 
	C483.016205,56.319504 483.016205,69.220345 483.040955,82.593460 
	C403.477234,83.043816 323.888702,83.018745 244.300201,83.001755 
	C217.493042,82.996033 190.685898,83.010811 163.406494,83.040970 
z"/>
<path fill="#160209" opacity="1.000000" stroke="none" 
	d="
M442.991455,162.375519 
	C442.161194,162.887619 441.332458,162.988815 440.503723,162.988770 
	C361.648651,162.984558 282.793579,162.972610 203.474304,162.897430 
	C203.009125,151.837387 202.966660,140.840851 203.023788,129.844849 
	C203.054749,123.887482 203.830307,123.031540 209.579605,123.029335 
	C285.220947,123.000328 360.862305,123.032066 436.503540,122.959114 
	C441.181976,122.954605 443.121552,124.684494 443.044250,129.429138 
	C442.867767,140.255951 442.991333,151.087646 442.991455,162.375519 
z"/>
<path fill="#160209" opacity="1.000000" stroke="none" 
	d="
M83.015503,42.978447 
	C93.834137,42.966496 104.624802,42.962219 115.415222,43.011063 
	C122.420822,43.042770 122.963989,43.605892 122.990807,50.790314 
	C123.029846,61.248810 123.022629,71.707481 123.023270,83.102882 
	C122.982841,97.046616 122.954292,110.053543 122.925735,123.060471 
	C122.925735,123.060471 123.015663,123.015663 122.566315,122.999229 
	C109.117378,123.005051 96.117790,123.027313 83.118195,123.049576 
	C71.992622,123.030464 60.866776,123.052132 49.741600,122.975677 
	C43.857948,122.935242 43.068970,122.163338 43.026958,116.355354 
	C42.948887,105.562325 42.979431,94.768509 42.956470,83.509262 
	C42.948185,83.043510 43.008614,82.987373 43.502289,82.985870 
	C56.867802,82.984367 69.739639,82.984367 82.931099,82.984367 
	C82.931099,69.221123 82.931099,56.145016 82.931099,43.068909 
	C82.931099,43.068909 82.987434,43.008663 83.015503,42.978447 
z"/>
<path fill="#160209" opacity="1.000000" stroke="none" 
	d="
M522.950439,83.118271 
	C522.969543,71.992699 522.947815,60.866844 523.024353,49.741669 
	C523.064819,43.857700 523.836487,43.068985 529.644531,43.026966 
	C540.437622,42.948879 551.231384,42.979424 562.490662,42.956455 
	C562.956421,42.948166 563.012573,43.008598 563.014099,43.502277 
	C563.015625,56.867802 563.015625,69.739647 563.015625,82.931046 
	C576.778931,82.931046 589.855042,82.931046 602.931152,82.931046 
	C602.931152,82.931046 602.991272,82.987404 603.021484,83.015465 
	C603.033447,93.834091 603.037781,104.624748 602.988892,115.415176 
	C602.957153,122.421043 602.394226,122.963997 595.209778,122.990807 
	C584.751221,123.029839 574.292603,123.022636 562.897095,123.023270 
	C548.953369,122.982841 535.946411,122.954292 522.939514,122.925735 
	C522.939514,122.925735 522.984375,123.015648 523.000732,122.566315 
	C522.994934,109.117409 522.972717,96.117836 522.950439,83.118271 
z"/>
<path fill="#D61849" opacity="1.000000" stroke="none" 
	d="
M123.398590,123.037659 
	C122.954292,110.053543 122.982841,97.046616 123.030518,83.578903 
	C136.073486,83.073326 149.097336,83.028542 162.593460,82.959015 
	C163.065735,96.048676 163.065735,109.163086 163.065735,123.014847 
	C149.688095,123.014847 136.779770,123.014847 123.398590,123.037659 
z"/>
<path fill="#D61849" opacity="1.000000" stroke="none" 
	d="
M522.486816,83.073883 
	C522.972717,96.117836 522.994934,109.117409 523.045715,122.588715 
	C509.958893,123.060463 496.843536,123.060463 482.983795,123.060463 
	C482.983795,109.694199 482.983795,96.786507 482.959045,83.406540 
	C495.963898,82.966011 508.993500,82.997757 522.486816,83.073883 
z"/>
<path fill="#D61849" opacity="1.000000" stroke="none" 
	d="
M83.073853,123.513260 
	C96.117790,123.027313 109.117378,123.005051 122.588722,122.954269 
	C123.060471,136.026337 123.060471,149.126938 123.060471,163.009323 
	C109.765717,163.009323 96.883469,163.009323 83.568878,163.054077 
	C83.136528,163.098831 83.210663,163.161957 83.210663,163.161957 
	C83.150276,150.100281 83.089890,137.038605 83.073853,123.513260 
z"/>
<path fill="#D61849" opacity="1.000000" stroke="none" 
	d="
M522.962341,123.398590 
	C535.946411,122.954292 548.953369,122.982841 562.421143,123.030518 
	C562.924438,136.032730 562.966919,149.015823 563.054138,162.431259 
	C563.098877,162.863602 563.161987,162.789474 563.161987,162.789474 
	C550.028931,162.789474 536.895874,162.789474 522.985168,162.789474 
	C522.985168,149.714462 522.985168,136.792953 522.962341,123.398590 
z"/>
<path fill="#D61849" opacity="1.000000" stroke="none" 
	d="
M83.045731,202.914505 
	C69.948212,202.914505 56.850689,202.914505 43.377903,202.914505 
	C43.377903,189.616806 43.377903,176.616226 43.377903,163.037338 
	C56.424107,163.037338 69.326218,163.037338 82.719498,163.099640 
	C83.210663,163.161957 83.136528,163.098831 83.105019,163.068359 
	C83.041771,176.060852 83.010033,189.083847 82.979858,202.545380 
	C82.981422,202.983917 83.045731,202.914505 83.045731,202.914505 
z"/>
<path fill="#D61849" opacity="1.000000" stroke="none" 
	d="
M563.085571,203.045792 
	C563.069519,189.954468 563.053467,176.863144 563.099670,163.280640 
	C563.161987,162.789474 563.098877,162.863602 563.068359,162.895111 
	C576.151489,162.926620 589.265076,162.926620 602.686523,162.926620 
	C602.686523,176.417633 602.686523,189.323914 602.686523,202.978317 
	C589.723938,202.978317 576.808533,202.978317 563.454651,202.979919 
	C563.016113,202.981506 563.085571,203.045792 563.085571,203.045792 
z"/>
<path fill="#D61849" opacity="1.000000" stroke="none" 
	d="
M82.946686,203.016022 
	C96.028435,203.048141 109.144928,203.048141 122.629379,203.048141 
	C122.629379,216.290268 122.629379,229.187943 122.629379,242.544312 
	C109.755859,242.544312 96.741135,242.544312 83.011757,242.544312 
	C83.011757,229.682251 83.011757,216.773285 83.028748,203.389420 
	C83.045731,202.914505 82.981422,202.983917 82.946686,203.016022 
z"/>
<path fill="#D61849" opacity="1.000000" stroke="none" 
	d="
M562.984009,202.946762 
	C562.951904,216.028641 562.951904,229.145279 562.951904,242.629395 
	C549.709717,242.629395 536.812073,242.629395 523.455688,242.629395 
	C523.455688,229.755859 523.455688,216.741135 523.455688,203.011780 
	C536.317749,203.011780 549.226746,203.011780 562.610596,203.028778 
	C563.085571,203.045792 563.016113,202.981506 562.984009,202.946762 
z"/>
<path fill="#D61849" opacity="1.000000" stroke="none" 
	d="
M82.467499,43.042259 
	C82.931099,56.145016 82.931099,69.221123 82.931099,82.984367 
	C69.739639,82.984367 56.867802,82.984367 43.532410,82.957703 
	C43.068855,69.854958 43.068855,56.778866 43.068855,43.015610 
	C56.260281,43.015610 69.132088,43.015610 82.467499,43.042259 
z"/>
<path fill="#D61849" opacity="1.000000" stroke="none" 
	d="
M602.957764,82.467453 
	C589.855042,82.931046 576.778931,82.931046 563.015625,82.931046 
	C563.015625,69.739647 563.015625,56.867802 563.042297,43.532398 
	C576.145203,43.068840 589.221497,43.068840 602.984375,43.068840 
	C602.984375,56.260258 602.984375,69.132057 602.957764,82.467453 
z"/>
<path fill="#D61849" opacity="1.000000" stroke="none" 
	d="
M43.042290,563.532410 
	C56.145073,563.068848 69.221184,563.068848 82.984352,563.068848 
	C82.984352,576.260437 82.984352,589.132324 82.957672,602.467651 
	C69.854729,602.931213 56.778473,602.931213 43.015617,602.931213 
	C43.015617,589.739624 43.015617,576.867798 43.042290,563.532410 
z"/>
<path fill="#D61849" opacity="1.000000" stroke="none" 
	d="
M563.532471,602.957764 
	C563.068909,589.854797 563.068909,576.778503 563.068909,563.015625 
	C576.260437,563.015625 589.132324,563.015625 602.467651,563.042297 
	C602.931152,576.145081 602.931152,589.221130 602.931152,602.984375 
	C589.739685,602.984375 576.867859,602.984375 563.532471,602.957764 
z"/>
<path fill="#20030C" opacity="1.000000" stroke="none" 
	d="
M402.833679,362.989929 
	C402.833679,389.439819 402.833679,415.889740 402.833679,442.668854 
	C389.613983,442.668854 376.703430,442.668854 363.040680,442.668854 
	C363.040680,416.411041 363.040680,390.166016 363.561584,363.456970 
	C376.999542,362.991882 389.916595,362.990906 402.833679,362.989929 
z"/>
<path fill="#20030C" opacity="1.000000" stroke="none" 
	d="
M282.833679,362.989929 
	C282.833679,389.439819 282.833679,415.889740 282.833679,442.668854 
	C269.613983,442.668854 256.703430,442.668854 243.040695,442.668854 
	C243.040695,416.411011 243.040695,390.166016 243.561584,363.456970 
	C256.999542,362.991913 269.916595,362.990906 282.833679,362.989929 
z"/>
<path fill="#160209" opacity="1.000000" stroke="none" 
	d="
M402.897400,362.525696 
	C389.916595,362.990906 376.999542,362.991882 363.624390,362.991333 
	C363.123810,336.639679 363.081299,310.289551 363.560608,283.473602 
	C376.999542,283.008881 389.916626,283.009979 402.833740,283.011047 
	C402.876190,309.361206 402.918671,335.711334 402.897400,362.525696 
z"/>
<path fill="#20030C" opacity="1.000000" stroke="none" 
	d="
M243.166306,283.010071 
	C243.166306,256.560150 243.166306,230.110260 243.166306,203.331146 
	C256.386047,203.331146 269.296600,203.331146 282.959320,203.331146 
	C282.959320,229.588989 282.959320,255.833984 282.438416,282.543030 
	C269.000458,283.008118 256.083374,283.009094 243.166306,283.010071 
z"/>
<path fill="#20030C" opacity="1.000000" stroke="none" 
	d="
M402.896545,282.545380 
	C389.916626,283.009979 376.999542,283.008881 363.624329,283.009460 
	C363.166260,256.560944 363.166260,230.110779 363.166260,203.331253 
	C376.385864,203.331253 389.296509,203.331253 402.959320,203.331253 
	C402.959320,229.589264 402.959320,255.834488 402.896545,282.545380 
z"/>
<path fill="#160209" opacity="1.000000" stroke="none" 
	d="
M243.102570,283.474304 
	C256.083374,283.009094 269.000458,283.008118 282.375610,283.008667 
	C282.876190,309.360596 282.918671,335.711029 282.897430,362.525696 
	C269.916595,362.990906 256.999542,362.991913 243.624390,362.991333 
	C243.123810,336.639374 243.081329,310.288940 243.102570,283.474304 
z"/>
</svg>